<svg width="1340" height="168" viewBox="0 0 1340 168" fill="none" xmlns="http://www.w3.org/2000/svg">
<path opacity="0.195709" fill-rule="evenodd" clip-rule="evenodd" d="M83.708 77.7331V107.277H116.162C109.223 117.349 96.9133 123.84 83.708 123.84C63.1168 123.84 44.0922 107.053 44.0922 84C44.0922 60.9467 62.6691 44.1603 83.708 44.1603C95.1228 44.1603 104.523 48.6367 111.685 55.3512L142.796 24.4643C127.576 9.46848 106.761 0.0681152 83.708 0.0681152C37.3777 0.0681152 0 37.6696 0 84C0 130.33 37.3777 167.932 83.708 167.932C130.038 167.932 167.64 130.33 167.64 84V77.7331H83.708ZM339.98 167.932H289.173L263.21 123.392H235.904V167.932H191.812V0.0681152H262.539C296.559 0.0681152 324.313 27.8216 324.313 61.842C324.313 79.7474 316.479 95.8623 304.393 107.053L339.98 167.932ZM235.904 37.2219V85.3428H263.21C276.639 85.3428 287.383 74.8234 287.383 61.3943C287.383 47.9652 276.639 37.2219 263.21 37.2219H235.904ZM361.69 167.932H465.99V131.897H405.783V101.01H459.051V63.8563H405.783V36.5505H465.99V0.0681152H361.69V167.932ZM497.548 167.932H601.847V131.897H541.64V101.01H594.909V63.8563H541.64V36.5505H601.847V0.0681152H497.548V167.932ZM633.406 167.932H737.705V131.897H677.498V101.01H730.767V63.8563H677.498V36.5505H737.705V0.0681152H633.406V167.932ZM910.717 167.932V0.0681152H866.624V79.2998L787.169 0.0681152H769.263V167.932H813.356V88.4763L892.587 167.932H910.717ZM1083.5 24.4643C1068.28 9.24467 1047.47 0.0681152 1024.42 0.0681152C978.086 0.0681152 940.484 37.6696 940.484 84C940.484 130.33 978.086 167.932 1024.42 167.932C1047.69 167.932 1068.73 158.308 1083.95 143.088L1052.62 112.201C1045.68 119.363 1035.83 123.392 1024.42 123.392C1001.59 123.392 985.024 106.829 985.024 84C985.024 61.1705 1001.59 44.608 1024.42 44.608C1035.83 44.608 1045.68 48.6367 1052.62 55.5751L1083.5 24.4643ZM1114.17 84.2238C1114.17 37.8934 1151.55 0.0681152 1197.88 0.0681152C1244.21 0.0681152 1281.81 37.8934 1281.81 84.2238C1281.81 130.554 1244.21 167.932 1197.88 167.932C1151.55 167.932 1114.17 130.554 1114.17 84.2238ZM1237.94 84C1237.94 61.842 1220.03 43.9365 1197.88 43.9365C1175.94 43.9365 1158.04 61.842 1158.04 84C1158.04 105.934 1175.94 124.063 1197.88 124.063C1220.03 124.063 1237.94 105.934 1237.94 84ZM1304.64 149.803C1304.64 159.874 1312.25 167.932 1322.32 167.932C1332.39 167.932 1340 159.874 1340 149.803C1340 139.731 1332.39 132.121 1322.32 132.121C1312.25 132.121 1304.64 139.731 1304.64 149.803Z" fill="#7A797A"/>
</svg>
